<svg xmlns="http://www.w3.org/2000/svg" width="398.137" height="34.404" viewBox="0 0 398.137 34.404">
  <path id="logo-wide" d="M8.366.141A9.294,9.294,0,0,1,3.69-1.1a9.607,9.607,0,0,1-3.5-3.408l.658-.564A9.9,9.9,0,0,0,4.16-1.88,8.348,8.348,0,0,0,8.413-.752q3.619,0,5.358-2.092T15.51-9.212v-22.8H3.2V-32.9H16.45V-9.118Q16.45.141,8.366.141Zm33.7,0a17.275,17.275,0,0,1-8.6-2.162A15.9,15.9,0,0,1,27.4-7.967a16.513,16.513,0,0,1-2.209-8.484A16.513,16.513,0,0,1,27.4-24.934a15.9,15.9,0,0,1,6.063-5.945,17.275,17.275,0,0,1,8.6-2.162,17.275,17.275,0,0,1,8.6,2.162,15.9,15.9,0,0,1,6.063,5.945,16.513,16.513,0,0,1,2.209,8.484,16.513,16.513,0,0,1-2.209,8.484,15.9,15.9,0,0,1-6.063,5.946A17.275,17.275,0,0,1,42.065.141Zm0-.893A16.277,16.277,0,0,0,50.173-2.8a15.021,15.021,0,0,0,5.734-5.64A15.644,15.644,0,0,0,58-16.45a15.644,15.644,0,0,0-2.091-8.014,15.021,15.021,0,0,0-5.734-5.64,16.277,16.277,0,0,0-8.108-2.045A16.277,16.277,0,0,0,33.958-30.1a15.02,15.02,0,0,0-5.734,5.64,15.644,15.644,0,0,0-2.092,8.014,15.644,15.644,0,0,0,2.092,8.014A15.02,15.02,0,0,0,33.958-2.8,16.277,16.277,0,0,0,42.065-.752ZM93.812-32.9V0h-.94V-16.262H68.9V0h-.94V-32.9h.94v15.745h23.97V-32.9Zm38.352,0V0h-.8L107.254-31.161V0h-.94V-32.9h.8L131.224-1.739V-32.9ZM180.2-8.366V0H152.844V-32.9h26.743v8.366H163.748v3.854H177.66v7.99H163.748v4.324ZM216.9-32.9V0h-9.118l-12.5-14.946V0h-10.81V-32.9h9.118l12.5,14.946V-32.9Zm27.119,15.557h9.635V-3.431a22.374,22.374,0,0,1-6.768,3.1A27.939,27.939,0,0,1,239.324.752a20.092,20.092,0,0,1-9.447-2.186,16.339,16.339,0,0,1-6.557-6.11,16.869,16.869,0,0,1-2.373-8.907,16.869,16.869,0,0,1,2.373-8.906,16.231,16.231,0,0,1,6.627-6.11,20.725,20.725,0,0,1,9.612-2.185,22.055,22.055,0,0,1,8.671,1.621,16.289,16.289,0,0,1,6.368,4.724l-7.1,6.251a9.429,9.429,0,0,0-7.379-3.619,7.782,7.782,0,0,0-5.828,2.209,8.23,8.23,0,0,0-2.162,6.016,8.319,8.319,0,0,0,2.139,5.969,7.5,7.5,0,0,0,5.71,2.256,10.45,10.45,0,0,0,4.042-.8ZM258.406-32.9H269.5V-8.6H284.35V0H258.406ZM310.294-5.734h-12.5L295.583,0H284.3l14.382-32.9h10.9L323.971,0H312.5Zm-3.055-7.99L304.043-22l-3.2,8.272ZM358.187-32.9V0h-9.118l-12.5-14.946V0h-10.81V-32.9h9.118l12.5,14.946V-32.9Zm5.358,0H379.76a22.38,22.38,0,0,1,9.705,2A15.2,15.2,0,0,1,396-25.192a16.121,16.121,0,0,1,2.327,8.742A16.121,16.121,0,0,1,396-7.708,15.2,15.2,0,0,1,389.465-2a22.38,22.38,0,0,1-9.705,2H363.545ZM379.29-8.648A7.919,7.919,0,0,0,385-10.693a7.588,7.588,0,0,0,2.139-5.758A7.588,7.588,0,0,0,385-22.208a7.919,7.919,0,0,0-5.71-2.045h-4.653v15.6Z" transform="translate(-0.188 33.652)"/>
</svg>
