<svg xmlns="http://www.w3.org/2000/svg" width="247.972" height="90.793" viewBox="0 0 247.972 90.793">
  <path id="logo" d="M8.366.141A9.294,9.294,0,0,1,3.69-1.1a9.607,9.607,0,0,1-3.5-3.408l.658-.564A9.9,9.9,0,0,0,4.16-1.88,8.348,8.348,0,0,0,8.413-.752q3.619,0,5.358-2.092T15.51-9.212v-22.8H3.2V-32.9H16.45V-9.118Q16.45.141,8.366.141Zm33.7,0a17.275,17.275,0,0,1-8.6-2.162A15.9,15.9,0,0,1,27.4-7.967a16.513,16.513,0,0,1-2.209-8.484A16.513,16.513,0,0,1,27.4-24.934a15.9,15.9,0,0,1,6.063-5.945,17.275,17.275,0,0,1,8.6-2.162,17.275,17.275,0,0,1,8.6,2.162,15.9,15.9,0,0,1,6.063,5.945,16.513,16.513,0,0,1,2.209,8.484,16.513,16.513,0,0,1-2.209,8.484,15.9,15.9,0,0,1-6.063,5.946A17.275,17.275,0,0,1,42.065.141Zm0-.893A16.277,16.277,0,0,0,50.173-2.8a15.021,15.021,0,0,0,5.734-5.64A15.644,15.644,0,0,0,58-16.45a15.644,15.644,0,0,0-2.091-8.014,15.021,15.021,0,0,0-5.734-5.64,16.277,16.277,0,0,0-8.108-2.045A16.277,16.277,0,0,0,33.958-30.1a15.02,15.02,0,0,0-5.734,5.64,15.644,15.644,0,0,0-2.092,8.014,15.644,15.644,0,0,0,2.092,8.014A15.02,15.02,0,0,0,33.958-2.8,16.277,16.277,0,0,0,42.065-.752ZM93.812-32.9V0h-.94V-16.262H68.9V0h-.94V-32.9h.94v15.745h23.97V-32.9Zm38.352,0V0h-.8L107.254-31.161V0h-.94V-32.9h.8L131.224-1.739V-32.9ZM30.033,48.634V57H2.679V24.1H29.422v8.366H13.583V36.32H27.5v7.99H13.583v4.324ZM66.74,24.1V57H57.622L45.12,42.054V57H34.31V24.1h9.118l12.5,14.946V24.1ZM93.859,39.657h9.635V53.569a22.374,22.374,0,0,1-6.768,3.1,27.939,27.939,0,0,1-7.567,1.081,20.092,20.092,0,0,1-9.447-2.185,16.339,16.339,0,0,1-6.556-6.11,16.869,16.869,0,0,1-2.374-8.907,16.869,16.869,0,0,1,2.374-8.906,16.23,16.23,0,0,1,6.627-6.11,20.725,20.725,0,0,1,9.611-2.185,22.055,22.055,0,0,1,8.672,1.621,16.289,16.289,0,0,1,6.369,4.724l-7.1,6.251a9.429,9.429,0,0,0-7.379-3.619,7.782,7.782,0,0,0-5.828,2.209,8.23,8.23,0,0,0-2.162,6.016,8.319,8.319,0,0,0,2.138,5.969,7.5,7.5,0,0,0,5.711,2.256,10.45,10.45,0,0,0,4.042-.8ZM108.241,24.1h11.092V48.4h14.852V57H108.241Zm51.888,27.166h-12.5L145.418,57h-11.28L148.52,24.1h10.9L173.806,57H162.338Zm-3.055-7.99L153.878,35l-3.2,8.272ZM208.022,24.1V57H198.9L186.4,42.054V57h-10.81V24.1h9.118l12.5,14.946V24.1Zm5.358,0h16.215a22.38,22.38,0,0,1,9.706,2,15.2,15.2,0,0,1,6.533,5.711,16.121,16.121,0,0,1,2.326,8.742,16.121,16.121,0,0,1-2.326,8.742A15.2,15.2,0,0,1,239.3,55a22.38,22.38,0,0,1-9.706,2H213.38Zm15.745,24.252a7.919,7.919,0,0,0,5.711-2.044,7.588,7.588,0,0,0,2.138-5.757,7.588,7.588,0,0,0-2.138-5.757,7.919,7.919,0,0,0-5.711-2.044h-4.653v15.6Z" transform="translate(-0.188 33.041)"/>
</svg>
